Coordinates
version=1
nRows=29
nColumns=24
inDegrees=yes

Units are S.I. units (second, meters, Newtons, ...)
Angles are in degrees.

endheader
time	pelvis_tilt	pelvis_list	pelvis_rotation	pelvis_tx	pelvis_ty	pelvis_tz	hip_flexion_r	hip_adduction_r	hip_rotation_r	knee_angle_r	ankle_angle_r	subtalar_angle_r	mtp_angle_r	hip_flexion_l	hip_adduction_l	hip_rotation_l	knee_angle_l	ankle_angle_l	subtalar_angle_l	mtp_angle_l	lumbar_extension	lumbar_bending	lumbar_rotation
      0.98316667	     -1.26115983	     -3.97415831	     -1.30177399	     -0.08213178	      1.01590918	      0.29291120	    -10.17797354	      9.48783417	      2.07861367	    -12.79160876	     12.01117972	     -5.15310405	      3.71739749	     19.54011395	     -2.76991558	     -2.31037542	      7.20442149	      5.46301482	     -3.92972313	     -6.13625595	     -4.19900587	      2.57726775	      4.82918955
      0.98733333	     -1.26269853	     -3.87218938	     -1.34190741	     -0.07635806	      1.01530432	      0.29261318	    -10.22609815	      9.33129512	      1.96879101	    -13.39595473	     12.15248268	     -4.92135859	      3.83243276	     19.58244335	     -2.57574621	     -1.97324685	      6.78831030	      5.47349927	     -3.98450866	     -5.93026387	     -4.17099788	      2.46193548	      4.87718794
      0.99150000	     -1.23024933	     -3.74491490	     -1.38674907	     -0.07055999	      1.01478160	      0.29231700	    -10.28294558	      9.14396129	      1.84097885	    -14.05616549	     12.28642447	     -4.67060504	      4.00293475	     19.59140574	     -2.35695798	     -1.68255885	      6.31202427	      5.41831920	     -4.06974675	     -5.62027456	     -4.17873351	      2.31288513	      4.92572735
      0.99566667	     -1.14816512	     -3.61188666	     -1.42534367	     -0.06472258	      1.01435155	      0.29205390	    -10.39730298	      8.96084725	      1.77359324	    -14.69592821	     12.24883606	     -4.61598377	      5.56634670	     19.53676863	     -2.13617011	     -1.36448000	      5.81573814	      5.24855722	     -4.27721237	     -2.67385394	     -4.23913860	      2.12694596	      4.91485700
      0.99983333	     -1.12478298	     -3.46633794	     -1.45526326	     -0.05889208	      1.01386247	      0.29175940	    -10.40251061	      8.76487559	      1.65755462	    -15.43103772	     12.31891621	     -4.45705242	      5.60649726	     19.58092492	     -1.89955065	     -1.10235170	      5.20386938	      5.18744711	     -4.32810088	     -2.61513703	     -4.22333065	      1.94954565	      5.01336716
      1.00400000	     -1.06512462	     -3.30810301	     -1.48847626	     -0.05303882	      1.01344092	      0.29148349	    -10.42007739	      8.55249669	      1.51978245	    -16.21703767	     12.35648367	     -4.27891413	      5.68371500	     19.57302278	     -1.65383239	     -0.81858976	      4.58580773	      5.03141153	     -4.51738919	     -2.50612167	     -4.25714270	      1.74244386	      5.06226575
      1.00816667	     -0.99654919	     -3.14437425	     -1.52036160	     -0.04717335	      1.01305446	      0.29119213	    -10.41853775	      8.33194111	      1.36196857	    -17.05569196	     12.36411436	     -4.10486845	      5.80970012	     19.55629192	     -1.40218011	     -0.53552075	      3.94177178	      4.81870412	     -4.78519647	     -2.33832665	     -4.28777187	      1.52942209	      5.11560183
      1.01233333	     -0.89459494	     -2.96366972	     -1.55130165	     -0.04128357	      1.01275146	      0.29090897	    -10.43052889	      8.09165798	      1.19535951	    -17.93232629	     12.32422293	     -3.94708988	      5.99805492	     19.49561278	     -1.13532891	     -0.25283652	      3.29106350	      4.54694723	     -5.11330959	     -2.10385115	     -4.36113279	      1.28964646	      5.17035349
      1.01650000	     -0.84020930	     -2.78283377	     -1.58262951	     -0.03538820	      1.01240303	      0.29062217	    -10.35880622	      7.85334404	      1.02666410	    -18.86597734	     12.22987507	     -3.82455058	      6.22818964	     19.49512878	     -0.87065346	      0.01997029	      2.60665550	      4.24006544	     -5.46673495	     -1.83942654	     -4.37332870	      1.05685470	      5.21748168
      1.02066667	     -0.74794657	     -2.59032683	     -1.61167403	     -0.02948019	      1.01213223	      0.29031278	    -10.30172854	      7.59524210	      0.83471963	    -19.84268716	     12.09804116	     -3.68002161	      6.53662013	     19.44270396	     -0.59342492	      0.29979615	      1.93233242	      3.87867241	     -5.88769568	     -1.51656456	     -4.44829673	      0.81711058	      5.27208693
      1.02483333	     -0.66240451	     -2.39739638	     -1.64362389	     -0.02356683	      1.01188289	      0.29000762	    -10.20250476	      7.33119423	      0.61064053	    -20.87898492	     11.91457664	     -3.54704161	      6.91551578	     19.40162192	     -0.32012459	      0.54330439	      1.23944684	      3.48684273	     -6.32961994	     -1.15811315	     -4.48557902	      0.55187883	      5.32122357
      1.02900000	     -0.54963535	     -2.19216738	     -1.67161753	     -0.01763612	      1.01171564	      0.28971360	    -10.12155539	      7.05930644	      0.42077734	    -21.91049555	     11.52297395	     -3.62801832	     10.18578370	     19.33126215	     -0.03787572	      0.73978326	      0.53888276	      3.07820843	     -6.73249644	      1.63494247	     -4.57252182	      0.27459242	      5.33742216
      1.03316667	     -0.44012947	     -1.97453146	     -1.71155966	     -0.01170759	      1.01156824	      0.28937198	     -9.98267317	      6.74395472	      0.12577218	    -23.05204941	     11.24178680	     -3.39250188	     10.26289669	     19.26348768	      0.25443415	      0.88251216	     -0.17022152	      2.69122163	     -7.06715665	      1.66332611	     -4.65352521	     -0.00045181	      5.40986810
      1.03733333	     -0.34474594	     -1.74824747	     -1.75328638	     -0.00578137	      1.01144318	      0.28903189	     -9.79714913	      6.41604664	     -0.16831338	    -24.24058204	     10.89780727	     -3.22966617	     10.42030366	     19.20008550	      0.55270543	      1.05696918	     -0.86311800	      2.26923001	     -7.51158478	      1.71671551	     -4.71567892	     -0.28994602	      5.46246084
      1.04150000	     -0.25265021	     -1.51729515	     -1.79418931	      0.00014139	      1.01134643	      0.28867398	     -9.57622467	      6.07231007	     -0.48790838	    -25.47435379	     10.47898805	     -3.06692335	     10.66457684	     19.13809950	      0.85339762	      1.21285083	     -1.55778728	      1.85518153	     -7.95737378	      1.79019808	     -4.77499425	     -0.58180062	      5.50922839
      1.04566667	     -0.15697944	     -1.28135583	     -1.84118583	      0.00605301	      1.01128028	      0.28830392	     -9.32628972	      5.70928581	     -0.82568693	    -26.75660437	      9.99790558	     -2.90037252	     10.99300598	     19.06948838	      1.15423322	      1.33449497	     -2.24869619	      1.45459709	     -8.36336833	      1.87415105	     -4.84273219	     -0.88475103	      5.55725257
      1.04983333	     -0.05688687	     -1.03334625	     -1.89038779	      0.01196713	      1.01126783	      0.28792098	     -9.05083705	      5.31846978	     -1.19122896	    -28.07642781	      9.43579289	     -2.73197068	     11.41800155	     18.99227708	      1.46384128	      1.41007228	     -2.93957858	      1.08851877	     -8.72819347	      1.96584647	     -4.91051621	     -1.20252532	      5.60261458
      1.05400000	      0.10761193	     -0.77680319	     -1.95783056	      0.01790096	      1.01140840	      0.28755565	     -8.84055366	      4.90836186	     -1.51471767	    -29.36434681	      8.58803046	     -2.75974537	     14.96203509	     18.79712415	      1.77969769	      1.56279230	     -3.53733578	      0.64278454	     -9.30974703	      2.60245594	     -5.06945972	     -1.52330582	      5.63186191
      1.05816667	      0.15803373	     -0.52017997	     -1.99809984	      0.02378523	      1.01138633	      0.28712027	     -8.44256831	      4.47708348	     -1.94491509	    -30.77945010	      7.91069315	     -2.53330515	     15.08222447	     18.80587761	      2.08691091	      1.46410325	     -4.30671298	      0.50622839	     -9.30468510	      2.60864742	     -5.07704238	     -1.83898395	      5.66675723
      1.06233333	      0.27436149	     -0.25156715	     -2.06041446	      0.02968852	      1.01151697	      0.28670893	     -8.10858691	      4.02161130	     -2.32777787	    -32.17572808	      7.05001467	     -2.43331876	     15.16744449	     18.69711674	      2.40125676	      1.40115234	     -4.98844159	      0.34493020	     -9.42159156	      2.60878971	     -5.16767674	     -2.16467620	      5.69129067
      1.06650000	      0.39697258	      0.02795673	     -2.13592366	      0.03555779	      1.01168634	      0.28628686	     -7.74463717	      3.52938241	     -2.73123009	    -33.61359251	      6.12043634	     -2.30671804	     18.30368391	     18.54815503	      2.72938528	      1.41894666	     -5.59831554	      0.05711783	     -9.82632313	      2.54528820	     -5.26864641	     -2.51471722	      5.83107806
      1.07066667	      0.50557488	      0.30102898	     -2.19535239	      0.04141592	      1.01186098	      0.28584450	     -7.34401064	      3.03510442	     -3.15360257	    -35.06906953	      5.11418781	     -2.20805620	     18.32613369	     18.43663166	      3.04197035	      1.30194651	     -6.26257981	     -0.00168910	     -9.83635890	      2.54119076	     -5.35680298	     -2.84636115	      5.79989061
      1.07483333	      0.61320782	      0.58707197	     -2.26362413	      0.04725025	      1.01207054	      0.28540346	     -6.91751478	      2.51399536	     -3.55583764	    -36.54485209	      4.06890518	     -2.10723033	     18.36910679	     18.31400676	      3.36339717	      1.16150510	     -6.90431678	     -0.05503561	     -9.86481448	      2.53233210	     -5.45129206	     -3.18976296	      5.79714037
      1.07900000	      0.71043668	      0.87640892	     -2.33581518	      0.05306721	      1.01228806	      0.28495272	     -6.45552102	      1.97423674	     -3.95236108	    -38.03726476	      2.95697986	     -2.02605045	     18.44077222	     18.18607983	      3.68466077	      1.00508151	     -7.51241408	     -0.08151741	     -9.86873812	      2.51612802	     -5.52706918	     -3.54541393	      5.80780860
      1.08316667	      0.77800143	      1.14455923	     -2.40783077	      0.05881860	      1.01248197	      0.28450953	     -5.93704533	      1.45002992	     -4.33344270	    -39.52759910	      1.67938379	     -2.02176320	     21.70289960	     18.10651315	      3.97141186	      0.74116040	     -8.15506574	     -0.00155432	     -9.67942660	      1.81022415	     -5.58911335	     -3.86011849	      5.80992771
      1.08733333	      0.88660962	      1.44195245	     -2.47679983	      0.06458747	      1.01276472	      0.28404831	     -5.45080988	      0.88076357	     -4.71143653	    -41.02516614	      0.47443442	     -2.00541943	     21.69704351	     17.91953113	      4.30186742	      0.61126481	     -8.66886235	      0.04666099	     -9.70810188	      1.80691450	     -5.68340995	     -4.23370840	      5.83070406
      1.09150000	      0.96012850	      1.72319484	     -2.54885692	      0.07028246	      1.01300547	      0.28361444	     -4.90194452	      0.33337407	     -5.04606163	    -42.52480352	     -0.81536672	     -2.10751726	     21.72480041	     17.78303992	      4.60206587	      0.38100965	     -9.20425093	      0.11931249	     -9.58821649	      1.78009049	     -5.75393607	     -4.57854018	      5.86338999
      1.09566667	      1.01324481	      1.99418288	     -2.61885067	      0.07597740	      1.01325172	      0.28316948	     -4.32026779	     -0.21228640	     -5.36805095	    -44.00900876	     -2.13743741	     -2.17948707	     21.78200508	     17.64494196	      4.88978197	      0.14387054	     -9.69769877	      0.29262408	     -9.40813167	      1.72331997	     -5.78760962	     -4.88557495	      5.87522201
      1.09983333	      1.08673659	      2.28800501	     -2.68296403	      0.08161230	      1.01351681	      0.28272250	     -3.73823489	     -0.78937867	     -5.68040132	    -45.50362552	     -3.40781787	     -2.26890746	     21.80254944	     17.45552218	      5.20715842	     -0.05700355	    -10.11775996	      0.39194733	     -9.28401817	      1.67651693	     -5.87230355	     -5.26213047	      5.86089319
